<?xml version="1.0" encoding="UTF-8"?>
<svg id="Layer_1" data-name="Layer 1" xmlns="http://www.w3.org/2000/svg" xmlns:xlink="http://www.w3.org/1999/xlink" viewBox="0 0 1227.01 272">
  <defs>
    <style>
      .cls-1 {
        fill: #eae2c2;
      }

      .cls-2 {
        fill: #309ac0;
      }

      .cls-3 {
        fill: none;
      }

      .cls-4 {
        clip-path: url(#clippath-1);
      }

      .cls-5 {
        clip-path: url(#clippath);
      }
    </style>
    <clipPath id="clippath">
      <rect class="cls-3" width="1227" height="180"/>
    </clipPath>
    <clipPath id="clippath-1">
      <rect class="cls-3" x="56" y="109" width="1112" height="163"/>
    </clipPath>
  </defs>
  <g class="cls-5">
    <g id="Layer_2-i3" data-name="Layer 2-i3">
      <g id="waves_1-i3" data-name="waves 1-i3">
        <path class="cls-2" d="M1100.42,127.34c.02,16.39-3.25,32.62-9.6,47.71h-224.21c-26.2-62.26,2.75-134.08,64.67-160.42,61.92-26.34,133.36,2.77,159.56,65.02,6.35,15.09,9.62,31.3,9.62,47.69h-.04Z"/>
        <path class="cls-1" d="M1094.07,180h-230.77l-1.27-2.96c-27.23-64.78,2.93-139.49,67.36-166.86,64.43-27.38,138.73,2.94,165.96,67.72,13.32,31.69,13.32,67.45,0,99.14l-1.28,2.96ZM869.86,170.1h217.65c23.46-60.43-6.25-128.53-66.35-152.12-60.1-23.58-127.84,6.28-151.3,66.71-10.66,27.46-10.66,57.95,0,85.41Z"/>
        <path class="cls-2" d="M1067.91,127.34c.02,16.88-4.71,33.43-13.66,47.71h-151.12c-26.21-41.95-13.64-97.33,28.09-123.68,41.73-26.36,96.8-13.71,123.02,28.24,8.93,14.3,13.67,30.84,13.67,47.73Z"/>
        <path class="cls-1" d="M1056.97,180h-156.55l-1.45-2.31c-27.65-44.27-14.38-102.7,29.65-130.5,44.03-27.8,102.14-14.46,129.8,29.81,19.23,30.78,19.23,69.91,0,100.69l-1.44,2.31ZM905.9,170.1h145.58c23.49-40.42,9.93-92.33-30.27-115.94-40.2-23.61-91.83-9.99-115.32,30.43-15.35,26.42-15.35,59.1,0,85.51h0Z"/>
        <path class="cls-2" d="M1031.62,127.34c0,20.26-11.46,38.76-29.53,47.71h-46.85c-26.21-13.02-36.96-44.94-24.01-71.29,12.95-26.35,44.7-37.16,70.91-24.14,18.06,8.97,29.49,27.47,29.49,47.72Z"/>
        <path class="cls-1" d="M1003.29,180h-49.22l-1.03-.52c-28.65-14.23-40.39-49.12-26.24-77.92,14.16-28.8,48.85-40.61,77.5-26.38,28.65,14.23,40.39,49.12,26.24,77.92-5.63,11.45-14.85,20.72-26.24,26.38l-1.02.52ZM956.42,170.1h44.54c23.49-12.36,32.56-41.53,20.26-65.14-12.3-23.61-41.31-32.73-64.79-20.37-23.49,12.36-32.56,41.53-20.26,65.14,4.53,8.7,11.6,15.81,20.26,20.37h0Z"/>
        <ellipse class="cls-2" cx="978.7" cy="127.34" rx="23.01" ry="23.14"/>
        <path class="cls-1" d="M978.7,155.42c-15.43,0-27.93-12.57-27.93-28.08s12.51-28.08,27.93-28.08,27.93,12.57,27.93,28.08h0c-.02,15.5-12.51,28.07-27.93,28.08ZM978.7,109.15c-9.99,0-18.09,8.14-18.09,18.19s8.1,18.19,18.09,18.19c9.99,0,18.09-8.14,18.09-18.19h0c-.01-10.04-8.1-18.18-18.09-18.19Z"/>
        <path class="cls-2" d="M856.96,127.34c.02,16.39-3.25,32.62-9.6,47.71h-224.21c-26.26-62.23,2.63-134.08,64.53-160.48s133.36,2.65,159.62,64.88c6.39,15.15,9.68,31.44,9.67,47.89Z"/>
        <path class="cls-1" d="M850.61,180h-230.77l-1.27-2.96c-27.23-64.78,2.93-139.49,67.36-166.86,64.43-27.38,138.73,2.94,165.96,67.72,13.32,31.69,13.32,67.45,0,99.14l-1.28,2.96ZM626.41,170.1h217.65c23.46-60.43-6.25-128.53-66.35-152.12-60.1-23.58-127.84,6.28-151.3,66.71-10.66,27.46-10.66,57.95,0,85.41Z"/>
        <path class="cls-2" d="M824.44,127.34c.02,16.88-4.71,33.43-13.66,47.71h-151.12c-26.21-41.95-13.64-97.33,28.09-123.68,41.73-26.36,96.8-13.71,123.02,28.24,8.93,14.3,13.67,30.84,13.67,47.73Z"/>
        <path class="cls-1" d="M813.5,180h-156.55l-1.44-2.31c-27.65-44.27-14.37-102.69,29.66-130.49,44.03-27.8,102.13-14.45,129.78,29.82,19.22,30.77,19.22,69.89,0,100.67l-1.44,2.31ZM662.44,170.1h145.57c23.49-40.42,9.95-92.33-30.25-115.95-40.2-23.62-91.83-10-115.32,30.42-15.36,26.42-15.36,59.11,0,85.53h0Z"/>
        <path class="cls-2" d="M788.15,127.34c0,20.26-11.46,38.76-29.53,47.71h-46.84c-26.21-13.01-36.97-44.93-24.03-71.29,12.94-26.36,44.69-37.17,70.9-24.16,18.07,8.97,29.5,27.47,29.5,47.73Z"/>
        <path class="cls-1" d="M759.84,180h-49.22l-1.03-.52c-28.64-14.23-40.38-49.11-26.23-77.91,14.16-28.8,48.85-40.6,77.49-26.37,28.64,14.23,40.38,49.11,26.23,77.91-5.63,11.45-14.84,20.71-26.23,26.37l-1.02.52ZM712.96,170.1h44.54c23.49-12.36,32.57-41.54,20.27-65.16-12.3-23.62-41.31-32.74-64.81-20.38-23.49,12.36-32.57,41.54-20.27,65.16,4.53,8.71,11.61,15.82,20.27,20.38Z"/>
        <ellipse class="cls-2" cx="735.23" cy="127.34" rx="23.01" ry="23.14"/>
        <path class="cls-1" d="M735.23,155.42c-15.43,0-27.93-12.57-27.93-28.08s12.51-28.08,27.93-28.08,27.93,12.57,27.93,28.08h0c-.02,15.5-12.51,28.07-27.93,28.08ZM735.23,109.15c-9.99,0-18.09,8.14-18.09,18.19s8.1,18.19,18.09,18.19c9.99,0,18.09-8.14,18.09-18.19h0c-.01-10.04-8.1-18.18-18.09-18.19Z"/>
        <path class="cls-2" d="M613.49,127.34c.02,16.39-3.25,32.62-9.6,47.71h-224.21c-26.26-62.23,2.63-134.08,64.53-160.48s133.36,2.65,159.62,64.88c6.39,15.15,9.68,31.44,9.67,47.89Z"/>
        <path class="cls-1" d="M607.15,180h-230.77l-1.24-2.96c-27.23-64.78,2.93-139.49,67.36-166.86,64.43-27.38,138.73,2.94,165.96,67.72,13.32,31.69,13.32,67.45,0,99.14l-1.31,2.96ZM382.94,170.1h217.65c23.46-60.43-6.25-128.53-66.35-152.12-60.1-23.58-127.84,6.28-151.3,66.71-10.66,27.46-10.66,57.95,0,85.41Z"/>
        <path class="cls-2" d="M580.98,127.34c.02,16.88-4.71,33.43-13.66,47.71h-151.13c-26.2-41.96-13.61-97.33,28.12-123.68,41.73-26.35,96.81-13.69,123.01,28.27,8.92,14.29,13.66,30.82,13.66,47.69Z"/>
        <path class="cls-1" d="M570.05,180h-156.56l-1.45-2.31c-27.65-44.27-14.37-102.7,29.67-130.5,44.03-27.8,102.15-14.45,129.79,29.83,19.22,30.78,19.22,69.9,0,100.67l-1.44,2.31ZM418.96,170.1h145.59c23.48-40.42,9.92-92.33-30.28-115.94-40.2-23.61-91.83-9.98-115.31,30.45-15.34,26.41-15.34,59.08,0,85.49Z"/>
        <path class="cls-2" d="M544.66,127.34c0,20.25-11.42,38.74-29.48,47.71h-46.88c-26.22-13-36.99-44.91-24.06-71.28,12.93-26.36,44.67-37.19,70.89-24.19,18.08,8.97,29.53,27.48,29.52,47.75Z"/>
        <path class="cls-1" d="M516.37,180h-49.22l-1.03-.52c-28.64-14.23-40.38-49.11-26.23-77.91,14.16-28.8,48.85-40.6,77.49-26.37,28.64,14.23,40.38,49.11,26.23,77.91-5.63,11.45-14.84,20.71-26.23,26.37l-1.02.52ZM469.49,170.1h44.55c23.49-12.36,32.56-41.53,20.26-65.14-12.3-23.61-41.31-32.73-64.79-20.37-23.49,12.36-32.56,41.53-20.26,65.14,4.53,8.7,11.6,15.81,20.26,20.37h-.01Z"/>
        <ellipse class="cls-2" cx="491.76" cy="127.34" rx="23.01" ry="23.14"/>
        <path class="cls-1" d="M491.76,155.42c-15.43,0-27.93-12.57-27.93-28.08,0-15.51,12.51-28.08,27.93-28.08,15.43,0,27.93,12.57,27.93,28.08-.02,15.5-12.51,28.07-27.93,28.08ZM491.76,109.15c-9.99,0-18.09,8.14-18.09,18.19,0,10.04,8.1,18.19,18.09,18.19s18.09-8.14,18.09-18.19c-.01-10.04-8.1-18.18-18.09-18.19Z"/>
        <path class="cls-2" d="M370.02,127.34c.02,16.39-3.25,32.62-9.6,47.71h-224.21c-26.26-62.23,2.63-134.08,64.53-160.48,61.9-26.4,133.36,2.65,159.62,64.88,6.39,15.15,9.68,31.44,9.67,47.89Z"/>
        <path class="cls-1" d="M363.68,180h-230.77l-1.26-2.96c-27.22-64.78,2.94-139.47,67.37-166.84,64.43-27.37,138.72,2.95,165.94,67.73,13.31,31.68,13.31,67.43,0,99.11l-1.28,2.96ZM139.47,170.1h217.65c23.44-60.43-6.28-128.52-66.38-152.09-60.1-23.57-127.83,6.31-151.27,66.74-10.65,27.44-10.65,57.91,0,85.35Z"/>
        <path class="cls-2" d="M337.52,127.34c.02,16.88-4.71,33.43-13.66,47.71h-151.12c-26.21-41.95-13.64-97.33,28.09-123.68,41.73-26.36,96.8-13.71,123.02,28.24,8.93,14.3,13.67,30.84,13.67,47.73Z"/>
        <path class="cls-1" d="M326.58,180h-156.55l-1.44-2.31c-27.65-44.27-14.37-102.69,29.66-130.49s102.13-14.45,129.78,29.82c19.22,30.77,19.22,69.89,0,100.67l-1.44,2.31ZM175.52,170.1h145.57c23.49-40.42,9.95-92.33-30.25-115.95-40.2-23.62-91.83-10-115.32,30.42-15.36,26.42-15.36,59.11,0,85.53Z"/>
        <path class="cls-2" d="M301.23,127.34c0,20.26-11.46,38.76-29.53,47.71h-46.85c-26.21-13.02-36.96-44.94-24.01-71.29,12.95-26.35,44.7-37.16,70.91-24.14,18.06,8.97,29.49,27.47,29.49,47.72h0Z"/>
        <path class="cls-1" d="M272.91,180h-49.22l-1.03-.52c-28.64-14.24-40.38-49.12-26.22-77.91s48.85-40.6,77.49-26.36c28.64,14.24,40.38,49.12,26.22,77.91-5.63,11.44-14.84,20.7-26.22,26.36l-1.03.52ZM226.02,170.1h44.55c23.49-12.37,32.56-41.54,20.26-65.16-12.3-23.62-41.32-32.74-64.81-20.37-23.49,12.37-32.56,41.54-20.26,65.16,4.53,8.71,11.6,15.81,20.26,20.37Z"/>
        <ellipse class="cls-2" cx="248.3" cy="127.34" rx="23.01" ry="23.14"/>
        <path class="cls-1" d="M248.27,155.42c-15.43,0-27.93-12.57-27.93-28.08s12.51-28.08,27.93-28.08,27.93,12.57,27.93,28.08c-.02,15.5-12.51,28.07-27.93,28.08ZM248.27,109.15c-9.99,0-18.09,8.14-18.09,18.19s8.1,18.19,18.09,18.19,18.09-8.14,18.09-18.19c-.01-10.04-8.1-18.18-18.09-18.19Z"/>
        <path class="cls-2" d="M248.27,174.17v.88H4.86v-.88c0-67.59,54.5-122.39,121.73-122.39s121.73,54.8,121.73,122.39h-.04Z"/>
        <path class="cls-1" d="M253.01,179.92H.14l-.14-4.74v-1.01C0,103.89,56.67,46.91,126.57,46.91s126.57,56.98,126.57,127.26v1.01l-.14,4.74ZM9.76,170.18h233.64c-2.16-64.87-56.22-115.69-120.73-113.51-61.48,2.07-110.84,51.7-112.9,113.51Z"/>
        <path class="cls-2" d="M215.8,174.17v.88H37.37v-.88c0-49.54,39.96-89.7,89.24-89.69,49.27,0,89.2,40.16,89.21,89.69h-.02Z"/>
        <path class="cls-1" d="M220.36,179.92H32.81l-.26-4.61v-1.1c.01-52.23,42.14-94.56,94.08-94.54,51.93.01,94.02,42.33,94.03,94.54v1.1l-.31,4.61ZM42.29,170.18h168.56c-2.25-46.8-41.81-82.9-88.36-80.64-43.4,2.11-78.11,37.01-80.21,80.64Z"/>
        <path class="cls-2" d="M179.5,174.17v.88h-105.85v-.88c0-29.39,23.7-53.21,52.92-53.21,29.23,0,52.92,23.82,52.92,53.21Z"/>
        <path class="cls-1" d="M184.21,179.92h-115.31l-.12-4.74v-1.01c0-32.08,25.87-58.08,57.77-58.08,31.9,0,57.76,26,57.76,58.08v1.01l-.11,4.74ZM78.65,170.18h95.84c-2.43-26.61-25.86-46.2-52.33-43.75-23.09,2.14-41.39,20.53-43.51,43.75Z"/>
        <path class="cls-2" d="M149.59,174.17v.88h-45.94v-.88c0-12.78,10.3-23.14,23.01-23.14s23.01,10.36,23.01,23.14h-.09Z"/>
        <path class="cls-1" d="M154.15,179.92h-55.14l-.25-4.61v-1.1c0-15.47,12.47-28.01,27.86-28.01s27.86,12.54,27.86,28.01v1.1l-.32,4.61ZM108.85,170.18h35.46c-2.19-9.84-11.9-16.04-21.69-13.84-6.87,1.54-12.23,6.94-13.77,13.84Z"/>
        <path class="cls-2" d="M491.76,174.17v.88h-243.49v-.88c0-67.59,54.5-122.39,121.73-122.39s121.73,54.8,121.73,122.39h.03Z"/>
        <path class="cls-1" d="M496.46,179.92h-252.86l-.13-4.74v-1.01c0-70.28,56.67-127.26,126.57-127.26s126.57,56.98,126.57,127.26v1.01l-.15,4.74ZM253.21,170.18h233.64c-2.16-64.87-56.22-115.69-120.73-113.51-61.48,2.07-110.84,51.7-112.9,113.51h0Z"/>
        <path class="cls-2" d="M459.26,174.17v.88h-178.43v-.88c-.55-49.54,38.96-90.15,88.23-90.7,49.27-.55,89.66,39.17,90.21,88.71,0,.66,0,1.33,0,1.99h-.01Z"/>
        <path class="cls-1" d="M463.83,179.92h-187.58l-.25-4.61v-1.1c0-52.23,42.11-94.57,94.06-94.57s94.06,42.34,94.06,94.57v1.1l-.28,4.61ZM285.75,170.18h168.57c-2.19-46.8-41.7-82.96-88.25-80.76-43.49,2.05-78.28,37.04-80.33,80.76Z"/>
        <path class="cls-2" d="M422.97,174.17v.88h-105.79v-.88c.42-29.39,24.46-52.87,53.69-52.45,28.64.41,51.76,23.66,52.17,52.45h-.07Z"/>
        <path class="cls-1" d="M427.64,179.92h-115.23l-.13-4.74v-1.01c.44-32.08,26.66-57.73,58.57-57.29,31.29.43,56.55,25.83,56.98,57.29v1.01l-.19,4.74ZM322.08,170.18h95.84c-2.43-26.61-25.86-46.2-52.33-43.75-23.09,2.14-41.39,20.53-43.51,43.75Z"/>
        <path class="cls-2" d="M393.05,174.17v.88h-45.94v-.88c0-12.78,10.31-23.14,23.02-23.14s23.02,10.36,23.02,23.14h-.1Z"/>
        <path class="cls-1" d="M397.6,179.92h-55.13l-.26-4.61v-1.1c0-15.47,12.47-28.01,27.86-28.01s27.86,12.54,27.86,28.01v1.1l-.32,4.61ZM352.3,170.18h35.47c-2.2-9.85-11.93-16.04-21.72-13.82-6.85,1.55-12.2,6.93-13.75,13.82Z"/>
        <path class="cls-2" d="M735.23,174.17v.88h-243.46v-.88c.64-67.6,55.66-121.88,122.89-121.23,66.33.63,119.95,54.54,120.58,121.23h-.01Z"/>
        <path class="cls-1" d="M739.93,179.92h-252.87l-.13-4.74v-1.01c.65-70.29,57.85-126.74,127.76-126.08,68.99.64,124.76,56.72,125.4,126.08v1.01l-.15,4.74ZM496.67,170.18h233.65c-2.25-64.87-56.38-115.62-120.9-113.36-61.36,2.15-110.61,51.67-112.75,113.36Z"/>
        <path class="cls-2" d="M702.72,174.17v.88h-178.43v-.88c0-49.54,39.95-89.71,89.22-89.71s89.22,40.16,89.22,89.71h-.02Z"/>
        <path class="cls-1" d="M707.28,179.92h-187.57l-.25-4.61v-1.1c-.03-52.23,42.06-94.59,94-94.63,51.95-.03,94.08,42.28,94.11,94.51v1.21l-.3,4.61ZM529.22,170.18h168.56c-2.25-46.8-41.81-82.9-88.36-80.64-43.4,2.11-78.11,37.01-80.21,80.64Z"/>
        <path class="cls-2" d="M666.42,174.17v.88h-105.84v-.88c-.02-29.39,23.65-53.23,52.88-53.25,29.23-.02,52.94,23.78,52.97,53.17v.08h-.01Z"/>
        <path class="cls-1" d="M671.14,179.92h-115.27l-.13-4.74v-1.01c0-32.08,25.86-58.08,57.77-58.08s57.77,26,57.77,58.08v1.01l-.14,4.74ZM565.58,170.18h95.84c-2.43-26.61-25.86-46.2-52.33-43.75-23.09,2.14-41.39,20.53-43.51,43.75Z"/>
        <path class="cls-2" d="M636.53,174.17v.88h-45.94v-.88c0-12.78,10.3-23.14,23.01-23.14s23.01,10.36,23.01,23.14h-.09Z"/>
        <path class="cls-1" d="M641.07,179.92h-55.14l-.25-4.61v-1.1c0-15.47,12.47-28.01,27.86-28.01s27.86,12.54,27.86,28.01v1.1l-.32,4.61ZM595.77,170.18h35.46c-2.19-9.84-11.9-16.04-21.69-13.84-6.87,1.54-12.23,6.94-13.77,13.84Z"/>
        <path class="cls-2" d="M978.7,174.17v.88h-243.46v-.88c.64-67.6,55.66-121.88,122.89-121.23,66.33.63,119.95,54.54,120.58,121.23h-.01Z"/>
        <path class="cls-1" d="M983.39,179.92h-252.86l-.13-4.74v-1.01c.65-70.29,57.85-126.74,127.75-126.09,68.99.64,124.76,56.72,125.4,126.09v1.01l-.16,4.74ZM740.14,170.18h233.65c-2.25-64.87-56.38-115.62-120.9-113.36-61.36,2.15-110.61,51.67-112.75,113.36Z"/>
        <path class="cls-2" d="M946.18,174.17v.88h-178.4v-.88c-.55-49.54,38.96-90.15,88.23-90.7,49.27-.55,89.66,39.17,90.21,88.71,0,.66,0,1.32,0,1.98h-.03Z"/>
        <path class="cls-1" d="M950.75,179.92h-187.58l-.25-4.61v-1.1c0-52.23,42.11-94.57,94.06-94.57s94.06,42.34,94.06,94.57v1.1l-.28,4.61ZM772.68,170.18h168.57c-2.19-46.8-41.7-82.96-88.25-80.76-43.49,2.05-78.28,37.04-80.33,80.76Z"/>
        <path class="cls-2" d="M909.89,174.17v.88h-105.85v-.88c.42-29.39,24.46-52.87,53.69-52.45,28.64.41,51.76,23.66,52.17,52.45h-.01Z"/>
        <path class="cls-1" d="M914.6,179.92h-115.27l-.13-4.74v-1.01c.44-32.08,26.66-57.73,58.57-57.29,31.29.43,56.55,25.83,56.98,57.29v1.01l-.15,4.74ZM809.04,170.18h95.84c-2.43-26.61-25.86-46.2-52.33-43.75-23.09,2.14-41.39,20.53-43.51,43.75Z"/>
        <path class="cls-2" d="M879.98,174.17v.88h-45.94v-.88c0-12.78,10.3-23.14,23.01-23.14s23.01,10.36,23.01,23.14h-.09Z"/>
        <path class="cls-1" d="M884.54,179.92h-55.14l-.25-4.61v-1.1c0-15.47,12.47-28.01,27.86-28.01s27.86,12.54,27.86,28.01v1.1l-.32,4.61ZM839.24,170.18h35.46c-2.19-9.84-11.9-16.04-21.69-13.84-6.87,1.54-12.23,6.94-13.77,13.84Z"/>
        <path class="cls-2" d="M1222.15,174.17v.88h-243.46v-.88c.03-67.59,54.56-122.36,121.79-122.33,67.18.03,121.63,54.78,121.67,122.33Z"/>
        <path class="cls-1" d="M1226.87,179.92h-252.89l-.12-4.74v-1.01c0-70.28,56.67-127.26,126.57-127.26s126.57,56.98,126.57,127.26v1.01l-.14,4.74ZM983.61,170.18h233.68c-2.16-64.87-56.22-115.69-120.73-113.51-61.48,2.07-110.84,51.7-112.9,113.51h-.04Z"/>
        <path class="cls-2" d="M1189.65,174.17v.88h-178.43v-.88c-.55-49.54,38.95-90.15,88.23-90.7,49.27-.55,89.66,39.17,90.21,88.71,0,.66,0,1.33,0,1.99h-.01Z"/>
        <path class="cls-1" d="M1194.21,179.92h-187.57l-.25-4.61v-1.1c0-52.23,42.11-94.57,94.06-94.57s94.06,42.34,94.06,94.57v1.15l-.3,4.55ZM1016.15,170.18h168.57c-2.19-46.8-41.7-82.96-88.25-80.76-43.49,2.05-78.28,37.04-80.33,80.76h0Z"/>
        <path class="cls-2" d="M1153.36,174.17v.88h-105.85v-.88c.42-29.39,24.46-52.88,53.69-52.45,28.64.41,51.76,23.66,52.17,52.45h-.01Z"/>
        <path class="cls-1" d="M1158.06,179.92h-115.26l-.13-4.74v-1.01c.03-32.08,25.92-58.06,57.82-58.03,31.86.03,57.69,25.99,57.72,58.03v1.01l-.14,4.74ZM1052.51,170.18h95.87c-2.43-26.61-25.86-46.2-52.33-43.75-23.09,2.14-41.39,20.53-43.51,43.75h-.03Z"/>
        <path class="cls-2" d="M1123.44,174.17v.88h-45.94v-.88c0-12.78,10.3-23.14,23.01-23.14s23.01,10.36,23.01,23.14h-.09Z"/>
        <path class="cls-1" d="M1128.01,179.92h-55.09l-.26-4.6v-1.15c-.02-15.47,12.43-28.03,27.81-28.05s27.88,12.5,27.9,27.97v1.18l-.36,4.65ZM1082.7,170.18h35.46c-2.19-9.84-11.9-16.04-21.69-13.84-6.87,1.54-12.23,6.94-13.77,13.84Z"/>
      </g>
    </g>
  </g>
  <g class="cls-4">
    <g id="Layer_2-i7" data-name="Layer 2-i7">
      <g id="waves_1-i7" data-name="waves 1-i7">
        <path class="cls-2" d="M1053.28,224.31c.02,14.84-2.94,29.54-8.7,43.21h-203.19c-23.75-56.38,2.5-121.42,58.61-145.27,56.12-23.86,120.86,2.51,144.6,58.88,5.75,13.66,8.72,28.35,8.72,43.18h-.04Z"/>
        <path class="cls-1" d="M1047.53,272h-209.14l-1.15-2.68c-24.68-58.66,2.65-126.31,61.04-151.11,58.39-24.79,125.73,2.66,150.41,61.33,12.07,28.7,12.07,61.08,0,89.78l-1.16,2.68ZM844.34,263.04h197.25c21.26-54.72-5.66-116.39-60.13-137.75-54.47-21.36-115.86,5.69-137.12,60.41-9.66,24.87-9.66,52.47,0,77.34Z"/>
        <path class="cls-2" d="M1023.82,224.31c.02,15.29-4.27,30.27-12.38,43.21h-136.95c-23.76-37.99-12.36-88.14,25.46-112,37.82-23.87,87.73-12.42,111.49,25.58,8.1,12.95,12.39,27.93,12.39,43.22Z"/>
        <path class="cls-1" d="M1013.91,272h-141.88l-1.32-2.09c-25.06-40.09-13.03-93,26.87-118.18,39.9-25.18,92.57-13.09,117.63,27,17.43,27.87,17.43,63.31,0,91.18l-1.31,2.09ZM877,263.04h131.94c21.28-36.6,9-83.61-27.43-104.99-36.43-21.38-83.22-9.05-104.51,27.56-13.91,23.92-13.91,53.51,0,77.43h0Z"/>
        <path class="cls-2" d="M990.93,224.31c0,18.35-10.38,35.1-26.76,43.21h-42.46c-23.75-11.79-33.5-40.7-21.76-64.56,11.74-23.86,40.51-33.65,64.26-21.86,16.37,8.12,26.72,24.87,26.72,43.21Z"/>
        <path class="cls-1" d="M965.26,272h-44.6l-.93-.47c-25.96-12.89-36.61-44.48-23.78-70.56,12.83-26.08,44.27-36.78,70.24-23.89,25.96,12.89,36.61,44.48,23.78,70.56-5.1,10.37-13.46,18.77-23.78,23.89l-.92.47ZM922.78,263.04h40.36c21.28-11.2,29.5-37.61,18.36-58.99-11.15-21.38-37.44-29.64-58.72-18.44-21.28,11.2-29.5,37.61-18.36,58.99,4.11,7.88,10.51,14.32,18.36,18.44h0Z"/>
        <ellipse class="cls-2" cx="942.97" cy="224.31" rx="20.85" ry="20.95"/>
        <path class="cls-1" d="M942.97,249.74c-13.98,0-25.32-11.39-25.32-25.43s11.33-25.43,25.32-25.43c13.98,0,25.32,11.39,25.32,25.43h0c-.02,14.04-11.34,25.42-25.32,25.43ZM942.97,207.84c-9.05,0-16.39,7.37-16.39,16.47s7.34,16.47,16.39,16.47c9.05,0,16.39-7.37,16.39-16.47h0c-.01-9.09-7.34-16.46-16.39-16.47Z"/>
        <path class="cls-2" d="M832.64,224.31c.02,14.84-2.94,29.54-8.7,43.21h-203.19c-23.8-56.35,2.38-121.42,58.48-145.33s120.86,2.4,144.66,58.75c5.79,13.72,8.77,28.47,8.76,43.37Z"/>
        <path class="cls-1" d="M826.89,272h-209.14l-1.15-2.68c-24.68-58.66,2.65-126.31,61.04-151.11,58.39-24.79,125.73,2.66,150.41,61.33,12.07,28.7,12.07,61.08,0,89.78l-1.16,2.68ZM623.7,263.04h197.25c21.26-54.72-5.66-116.39-60.13-137.75-54.47-21.36-115.86,5.69-137.12,60.41-9.66,24.87-9.66,52.47,0,77.34Z"/>
        <path class="cls-2" d="M803.17,224.31c.02,15.29-4.27,30.27-12.38,43.21h-136.95c-23.76-37.99-12.36-88.14,25.46-112,37.82-23.87,87.73-12.42,111.49,25.58,8.1,12.95,12.39,27.93,12.39,43.22Z"/>
        <path class="cls-1" d="M793.26,272h-141.88l-1.31-2.09c-25.06-40.09-13.02-92.99,26.88-118.16,39.9-25.17,92.56-13.08,117.62,27,17.42,27.87,17.42,63.29,0,91.16l-1.31,2.09ZM656.36,263.04h131.93c21.29-36.6,9.01-83.61-27.42-105-36.43-21.39-83.22-9.06-104.51,27.54-13.92,23.92-13.92,53.53,0,77.45h0Z"/>
        <path class="cls-2" d="M770.28,224.31c0,18.35-10.38,35.1-26.76,43.21h-42.45c-23.76-11.79-33.5-40.69-21.77-64.55,11.73-23.87,40.5-33.66,64.26-21.87,16.37,8.12,26.74,24.88,26.73,43.22Z"/>
        <path class="cls-1" d="M744.62,272h-44.6l-.93-.47c-25.96-12.89-36.6-44.48-23.77-70.55,12.83-26.08,44.27-36.77,70.23-23.88,25.96,12.89,36.6,44.48,23.77,70.55-5.1,10.36-13.45,18.76-23.77,23.88l-.92.47ZM702.14,263.04h40.36c21.29-11.2,29.52-37.61,18.37-59-11.15-21.39-37.44-29.65-58.73-18.46-21.29,11.2-29.52,37.61-18.37,59,4.11,7.89,10.52,14.33,18.37,18.46Z"/>
        <ellipse class="cls-2" cx="722.32" cy="224.31" rx="20.85" ry="20.95"/>
        <path class="cls-1" d="M722.32,249.74c-13.98,0-25.32-11.39-25.32-25.43s11.33-25.43,25.32-25.43c13.98,0,25.32,11.39,25.32,25.43h0c-.02,14.04-11.34,25.42-25.32,25.43ZM722.32,207.84c-9.05,0-16.39,7.37-16.39,16.47s7.34,16.47,16.39,16.47c9.05,0,16.39-7.37,16.39-16.47h0c-.01-9.09-7.34-16.46-16.39-16.47Z"/>
        <path class="cls-2" d="M611.99,224.31c.02,14.84-2.94,29.54-8.7,43.21h-203.19c-23.8-56.35,2.38-121.42,58.48-145.33s120.86,2.4,144.66,58.75c5.79,13.72,8.77,28.47,8.76,43.37Z"/>
        <path class="cls-1" d="M606.24,272h-209.14l-1.12-2.68c-24.68-58.66,2.65-126.31,61.04-151.11,58.39-24.79,125.73,2.66,150.41,61.33,12.07,28.7,12.07,61.08,0,89.78l-1.19,2.68ZM403.05,263.04h197.25c21.26-54.72-5.66-116.39-60.13-137.75-54.47-21.36-115.86,5.69-137.12,60.41-9.66,24.87-9.66,52.47,0,77.34Z"/>
        <path class="cls-2" d="M582.53,224.31c.02,15.29-4.27,30.27-12.38,43.21h-136.96c-23.75-38-12.34-88.14,25.48-112,37.82-23.86,87.73-12.4,111.48,25.6,8.09,12.94,12.38,27.91,12.38,43.19Z"/>
        <path class="cls-1" d="M572.62,272h-141.89l-1.32-2.09c-25.06-40.09-13.02-93,26.89-118.17,39.91-25.17,92.57-13.08,117.63,27.01,17.42,27.87,17.42,63.3,0,91.16l-1.31,2.09ZM435.7,263.04h131.95c21.28-36.61,8.99-83.61-27.44-104.99-36.44-21.38-83.22-9.03-104.5,27.57-13.9,23.92-13.9,53.5,0,77.42Z"/>
        <path class="cls-2" d="M549.61,224.31c0,18.33-10.35,35.08-26.71,43.21h-42.48c-23.76-11.77-33.52-40.67-21.8-64.54,11.72-23.87,40.48-33.68,64.25-21.9,16.39,8.12,26.76,24.89,26.75,43.24Z"/>
        <path class="cls-1" d="M523.97,272h-44.6l-.93-.47c-25.96-12.89-36.6-44.48-23.77-70.55,12.83-26.08,44.27-36.77,70.23-23.88,25.96,12.89,36.6,44.48,23.77,70.55-5.1,10.36-13.45,18.76-23.77,23.88l-.92.47ZM481.49,263.04h40.37c21.28-11.2,29.5-37.61,18.36-58.99-11.15-21.38-37.44-29.64-58.72-18.44-21.28,11.2-29.5,37.61-18.36,58.99,4.11,7.88,10.51,14.32,18.36,18.44h0Z"/>
        <ellipse class="cls-2" cx="501.67" cy="224.31" rx="20.85" ry="20.95"/>
        <path class="cls-1" d="M501.67,249.74c-13.98,0-25.32-11.39-25.32-25.43,0-14.05,11.33-25.43,25.32-25.43,13.98,0,25.32,11.39,25.32,25.43-.02,14.04-11.34,25.42-25.32,25.43ZM501.67,207.84c-9.05,0-16.39,7.37-16.39,16.47,0,9.1,7.34,16.47,16.39,16.47s16.39-7.37,16.39-16.47c-.01-9.09-7.34-16.46-16.39-16.47Z"/>
        <path class="cls-2" d="M391.34,224.31c.02,14.84-2.94,29.54-8.7,43.21h-203.19c-23.8-56.35,2.38-121.42,58.48-145.33,56.09-23.91,120.86,2.4,144.66,58.75,5.79,13.72,8.77,28.47,8.76,43.37Z"/>
        <path class="cls-1" d="M385.59,272h-209.14l-1.14-2.68c-24.67-58.66,2.66-126.3,61.05-151.09,58.39-24.78,125.72,2.68,150.39,61.33,12.07,28.69,12.07,61.06,0,89.75l-1.16,2.68ZM182.4,263.04h197.25c21.24-54.72-5.69-116.38-60.16-137.72-54.47-21.34-115.85,5.72-137.09,60.44-9.65,24.85-9.65,52.44,0,77.29Z"/>
        <path class="cls-2" d="M361.88,224.31c.02,15.29-4.27,30.27-12.38,43.21h-136.95c-23.76-37.99-12.36-88.14,25.46-112,37.82-23.87,87.73-12.42,111.49,25.58,8.1,12.95,12.39,27.93,12.39,43.22Z"/>
        <path class="cls-1" d="M351.97,272h-141.88l-1.31-2.09c-25.06-40.09-13.02-92.99,26.88-118.16,39.9-25.17,92.56-13.08,117.62,27,17.42,27.87,17.42,63.29,0,91.16l-1.31,2.09ZM215.07,263.04h131.93c21.29-36.6,9.01-83.61-27.42-105-36.43-21.39-83.22-9.06-104.51,27.54-13.92,23.92-13.92,53.53,0,77.45Z"/>
        <path class="cls-2" d="M328.99,224.31c0,18.35-10.38,35.1-26.76,43.21h-42.46c-23.75-11.79-33.5-40.7-21.76-64.56,11.74-23.86,40.51-33.65,64.26-21.86,16.37,8.12,26.72,24.87,26.72,43.21h0Z"/>
        <path class="cls-1" d="M303.33,272h-44.6l-.93-.47c-25.95-12.89-36.59-44.48-23.76-70.55,12.83-26.07,44.27-36.76,70.23-23.87,25.95,12.89,36.59,44.48,23.76,70.55-5.1,10.36-13.45,18.75-23.76,23.87l-.93.47ZM260.84,263.04h40.37c21.29-11.2,29.51-37.62,18.36-59.01-11.15-21.39-37.44-29.65-58.73-18.45-21.29,11.2-29.51,37.62-18.36,59.01,4.11,7.88,10.52,14.32,18.36,18.45Z"/>
        <ellipse class="cls-2" cx="281.03" cy="224.31" rx="20.85" ry="20.95"/>
        <path class="cls-1" d="M281,249.74c-13.98,0-25.32-11.39-25.32-25.43s11.33-25.43,25.32-25.43c13.98,0,25.32,11.39,25.32,25.43-.02,14.04-11.34,25.42-25.32,25.43ZM281,207.84c-9.05,0-16.39,7.37-16.39,16.47s7.34,16.47,16.39,16.47,16.39-7.37,16.39-16.47c-.01-9.09-7.34-16.46-16.39-16.47Z"/>
        <path class="cls-2" d="M281,266.72v.8H60.4v-.8c0-61.21,49.39-110.83,110.32-110.83s110.32,49.62,110.32,110.83h-.04Z"/>
        <path class="cls-1" d="M285.29,271.93H56.13l-.13-4.29v-.92c0-63.65,51.36-115.24,114.71-115.24s114.71,51.6,114.71,115.24v.92l-.13,4.29ZM64.84,263.11h211.74c-1.96-58.74-50.95-104.76-109.42-102.79-55.72,1.88-100.45,46.82-102.32,102.79Z"/>
        <path class="cls-2" d="M251.57,266.72v.8H89.87v-.8c0-44.87,36.22-81.23,80.87-81.22,44.65,0,80.84,36.37,80.85,81.22h-.02Z"/>
        <path class="cls-1" d="M255.71,271.93H85.74l-.24-4.17v-1c.01-47.3,38.19-85.63,85.26-85.62,47.06.01,85.21,38.34,85.22,85.62v1l-.28,4.17ZM94.33,263.11h152.76c-2.04-42.38-37.89-75.07-80.07-73.03-39.33,1.91-70.79,33.51-72.69,73.03Z"/>
        <path class="cls-2" d="M218.67,266.72v.8h-95.93v-.8c0-26.61,21.47-48.19,47.96-48.19,26.49,0,47.96,21.57,47.96,48.19Z"/>
        <path class="cls-1" d="M222.95,271.93h-104.5l-.11-4.29v-.92c0-29.05,23.44-52.6,52.36-52.59,28.91,0,52.35,23.55,52.35,52.59v.92l-.1,4.29ZM127.28,263.11h86.86c-2.21-24.1-23.44-41.83-47.42-39.62-20.93,1.93-37.51,18.59-39.43,39.62Z"/>
        <path class="cls-2" d="M191.57,266.72v.8h-41.63v-.8c0-11.57,9.34-20.95,20.85-20.95s20.85,9.38,20.85,20.95h-.08Z"/>
        <path class="cls-1" d="M195.7,271.93h-49.98l-.23-4.17v-1c0-14.01,11.3-25.36,25.25-25.36s25.25,11.36,25.25,25.36v1l-.29,4.17ZM154.64,263.11h32.13c-1.98-8.91-10.78-14.53-19.66-12.53-6.22,1.4-11.08,6.28-12.48,12.53Z"/>
        <path class="cls-2" d="M501.67,266.72v.8h-220.67v-.8c0-61.21,49.39-110.83,110.32-110.83s110.32,49.62,110.32,110.83h.03Z"/>
        <path class="cls-1" d="M505.93,271.93h-229.16l-.12-4.29v-.92c0-63.65,51.36-115.24,114.71-115.24s114.71,51.6,114.71,115.24v.92l-.14,4.29ZM285.48,263.11h211.74c-1.96-58.74-50.95-104.76-109.42-102.79-55.72,1.88-100.45,46.82-102.32,102.79h0Z"/>
        <path class="cls-2" d="M472.21,266.72v.8h-161.7v-.8c-.49-44.86,35.3-81.63,79.96-82.13,44.66-.5,81.26,35.47,81.75,80.33,0,.6,0,1.2,0,1.8h0Z"/>
        <path class="cls-1" d="M476.36,271.93h-170l-.23-4.17v-1c0-47.3,38.16-85.64,85.24-85.64s85.24,38.34,85.24,85.64v1l-.26,4.17ZM314.97,263.11h152.77c-1.98-42.38-37.79-75.13-79.97-73.13-39.41,1.86-70.95,33.54-72.8,73.13Z"/>
        <path class="cls-2" d="M439.32,266.72v.8h-95.88v-.8c.38-26.62,22.17-47.88,48.66-47.5,25.96.37,46.91,21.42,47.28,47.5h-.06Z"/>
        <path class="cls-1" d="M443.56,271.93h-104.43l-.12-4.29v-.92c.4-29.05,24.16-52.28,53.08-51.88,28.36.39,51.25,23.39,51.64,51.88v.92l-.17,4.29ZM347.9,263.11h86.86c-2.21-24.1-23.44-41.83-47.42-39.62-20.93,1.93-37.51,18.59-39.43,39.62Z"/>
        <path class="cls-2" d="M412.22,266.72v.8h-41.63v-.8c0-11.57,9.34-20.96,20.86-20.96s20.86,9.38,20.86,20.96h-.09Z"/>
        <path class="cls-1" d="M416.34,271.93h-49.97l-.24-4.17v-1c0-14.01,11.3-25.36,25.25-25.36s25.25,11.36,25.25,25.36v1l-.29,4.17ZM375.28,263.11h32.14c-2-8.92-10.81-14.52-19.69-12.52-6.21,1.4-11.06,6.28-12.46,12.52Z"/>
        <path class="cls-2" d="M722.32,266.72v.8h-220.64v-.8c.58-61.21,50.44-110.37,111.37-109.78,60.11.57,108.71,49.39,109.28,109.78h0Z"/>
        <path class="cls-1" d="M726.58,271.93h-229.17l-.12-4.29v-.92c.59-63.65,52.43-114.77,115.78-114.18,62.52.58,113.07,51.36,113.65,114.18v.92l-.14,4.29ZM506.12,263.11h211.75c-2.04-58.74-51.1-104.7-109.57-102.65-55.61,1.95-100.24,46.79-102.18,102.65Z"/>
        <path class="cls-2" d="M692.86,266.72v.8h-161.7v-.8c0-44.87,36.2-81.24,80.86-81.24s80.86,36.37,80.86,81.24h-.02Z"/>
        <path class="cls-1" d="M696.99,271.93h-169.99l-.23-4.17v-1c-.03-47.3,38.11-85.66,85.19-85.69,47.08-.03,85.27,38.29,85.29,85.59v1.1l-.27,4.17ZM535.62,263.11h152.76c-2.04-42.38-37.89-75.07-80.07-73.03-39.33,1.91-70.79,33.51-72.69,73.03Z"/>
        <path class="cls-2" d="M659.96,266.72v.8h-95.92v-.8c-.02-26.61,21.44-48.2,47.93-48.22,26.49-.02,47.98,21.54,48,48.15v.08h0Z"/>
        <path class="cls-1" d="M664.24,271.93h-104.46l-.12-4.29v-.92c0-29.05,23.44-52.6,52.35-52.6s52.35,23.55,52.35,52.6v.92l-.13,4.29ZM568.58,263.11h86.86c-2.21-24.1-23.44-41.83-47.42-39.62-20.93,1.93-37.51,18.59-39.43,39.62Z"/>
        <path class="cls-2" d="M632.87,266.72v.8h-41.63v-.8c0-11.57,9.34-20.95,20.85-20.95s20.85,9.38,20.85,20.95h-.08Z"/>
        <path class="cls-1" d="M636.99,271.93h-49.98l-.23-4.17v-1c0-14.01,11.3-25.36,25.25-25.36s25.25,11.36,25.25,25.36v1l-.29,4.17ZM595.93,263.11h32.13c-1.98-8.91-10.78-14.53-19.66-12.53-6.22,1.4-11.08,6.28-12.48,12.53Z"/>
        <path class="cls-2" d="M942.97,266.72v.8h-220.64v-.8c.58-61.21,50.44-110.37,111.37-109.78,60.11.57,108.71,49.39,109.28,109.78h0Z"/>
        <path class="cls-1" d="M947.22,271.93h-229.16l-.12-4.29v-.92c.59-63.65,52.42-114.77,115.78-114.18,62.53.58,113.07,51.36,113.65,114.18v.92l-.15,4.29ZM726.77,263.11h211.75c-2.04-58.74-51.1-104.7-109.57-102.65-55.61,1.95-100.24,46.79-102.18,102.65Z"/>
        <path class="cls-2" d="M913.5,266.72v.8h-161.68v-.8c-.49-44.86,35.31-81.63,79.96-82.13,44.66-.5,81.26,35.47,81.75,80.33,0,.6,0,1.2,0,1.8h-.03Z"/>
        <path class="cls-1" d="M917.64,271.93h-170l-.23-4.17v-1c0-47.3,38.16-85.64,85.24-85.64s85.24,38.34,85.24,85.64v1l-.26,4.17ZM756.26,263.11h152.77c-1.98-42.38-37.79-75.13-79.97-73.13-39.41,1.86-70.95,33.54-72.8,73.13Z"/>
        <path class="cls-2" d="M880.61,266.72v.8h-95.93v-.8c.38-26.62,22.17-47.88,48.66-47.5,25.95.38,46.9,21.42,47.28,47.5h0Z"/>
        <path class="cls-1" d="M884.88,271.93h-104.46l-.12-4.29v-.92c.4-29.05,24.16-52.28,53.08-51.88,28.36.39,51.25,23.39,51.64,51.88v.92l-.14,4.29ZM789.22,263.11h86.86c-2.21-24.1-23.44-41.83-47.42-39.62-20.93,1.93-37.51,18.59-39.43,39.62Z"/>
        <path class="cls-2" d="M853.5,266.72v.8h-41.63v-.8c0-11.57,9.34-20.95,20.85-20.95s20.85,9.38,20.85,20.95h-.08Z"/>
        <path class="cls-1" d="M857.64,271.93h-49.98l-.23-4.17v-1c0-14.01,11.3-25.36,25.25-25.36s25.25,11.36,25.25,25.36v1l-.29,4.17ZM816.58,263.11h32.13c-1.98-8.91-10.78-14.53-19.66-12.53-6.22,1.4-11.08,6.28-12.48,12.53Z"/>
        <path class="cls-2" d="M1163.61,266.72v.8h-220.64v-.8c.03-61.21,49.45-110.81,110.38-110.77,60.88.03,110.23,49.61,110.26,110.77Z"/>
        <path class="cls-1" d="M1167.88,271.93h-229.18l-.11-4.29v-.92c0-63.65,51.36-115.24,114.71-115.24s114.71,51.6,114.71,115.24v.92l-.13,4.29ZM947.42,263.11h211.78c-1.96-58.74-50.95-104.76-109.42-102.79-55.72,1.88-100.45,46.82-102.32,102.79h-.04Z"/>
        <path class="cls-2" d="M1134.15,266.72v.8h-161.7v-.8c-.5-44.86,35.3-81.63,79.96-82.13,44.66-.5,81.26,35.47,81.75,80.33,0,.6,0,1.2,0,1.8h0Z"/>
        <path class="cls-1" d="M1138.28,271.93h-169.99l-.23-4.17v-1c0-47.3,38.16-85.64,85.24-85.64s85.24,38.34,85.24,85.64v1.05l-.27,4.12ZM976.91,263.11h152.77c-1.98-42.38-37.79-75.13-79.97-73.13-39.41,1.86-70.95,33.54-72.8,73.13h0Z"/>
        <path class="cls-2" d="M1101.26,266.72v.8h-95.93v-.8c.38-26.62,22.16-47.88,48.66-47.5,25.96.37,46.91,21.42,47.28,47.5h0Z"/>
        <path class="cls-1" d="M1105.53,271.93h-104.46l-.12-4.29v-.92c.03-29.05,23.49-52.58,52.4-52.55,28.88.03,52.28,23.54,52.31,52.55v.92l-.13,4.29ZM1009.86,263.11h86.89c-2.21-24.1-23.44-41.83-47.42-39.62-20.93,1.93-37.51,18.59-39.43,39.62h-.03Z"/>
        <path class="cls-2" d="M1074.14,266.72v.8h-41.63v-.8c0-11.57,9.34-20.95,20.85-20.95s20.85,9.38,20.85,20.95h-.08Z"/>
        <path class="cls-1" d="M1078.29,271.93h-49.93l-.24-4.16v-1.05c-.02-14.01,11.26-25.38,25.21-25.4s25.26,11.32,25.28,25.32v1.07l-.33,4.21ZM1037.22,263.11h32.13c-1.98-8.91-10.78-14.53-19.66-12.53-6.22,1.4-11.08,6.28-12.48,12.53Z"/>
      </g>
    </g>
  </g>
</svg>